<svg viewBox="0 1 511 511.9999" xmlns="http://www.w3.org/2000/svg"><path d="m165.644531 280.285156c-5.527343 0-10 4.480469-10 10 0 5.53125 4.472657 10 10 10 5.519531 0 10-4.46875 10-10 0-5.519531-4.480469-10-10-10zm0 0"/><path d="m441.277344 14.664062c-19.539063-19.542968-51.164063-19.5625-70.707032 0l-282.703124 282.699219c-1.148438 1.152344-2.082032 2.683594-2.554688 4.378907-.007812.019531-.015625.039062-.023438.0625l-18.15625 66.570312c-1.777343 6.507812-1.289062 13.316406 1.226563 19.386719l-64.964844 67.292969c-2.785156 2.886718-3.578125 7.160156-2.007812 10.855468 1.566406 3.691406 5.191406 6.089844 9.203125 6.089844h80.90625c2.574218 0 5.046875-.988281 6.90625-2.765625l26.292968-25.109375c6.097657 2.539062 12.921876 3.019531 19.421876 1.242188l66.578124-18.15625c1.625-.445313 3.234376-1.371094 4.441407-2.578126 34.648437-34.652343 269.550781-269.554687 282.699219-282.699218 19.550781-19.539063 19.554687-51.164063 0-70.714844-17.390626-17.390625-39.21875-39.21875-56.558594-56.554688zm-233.214844 388.753907-98.984375-98.980469 191.855469-191.855469 21.207031 21.207031-14.140625 14.140626c-15.625 15.625-15.644531 40.9375-.003906 56.566406 15.628906 15.640625 40.9375 15.640625 56.574218.003906l14.136719-14.140625 21.207031 21.207031zm142.367188-213.058594c-7.816407 7.8125-20.46875 7.824219-28.289063-.003906-7.816406-7.8125-7.820313-20.464844 0-28.285157l119.136719-119.125 28.277344 28.277344zm34.285156-161.558594c11.71875-11.726562 30.6875-11.730469 42.421875.003907l-90.855469 90.84375-21.207031-21.207032zm-297.226563 423.199219h-53.347656l46.773437-48.449219 27.996094 27.996094zm51.359375-25.921875c-3.179687.867187-6.582031.109375-9.105468-2.035156-.023438-.023438-.054688-.046875-.082032-.070313-.304687-.253906-40.808594-40.746094-41.121094-41.121094-.027343-.03125-.054687-.0625-.082031-.097656-2.144531-2.519531-2.902343-5.921875-2.03125-9.109375l13.625-49.957031 88.761719 88.761719zm344.847656-298.289063-69.636718 69.636719-21.207032-21.207031 90.84375-90.855469c11.730469 11.730469 11.738282 30.695313 0 42.425781zm0 0"/><path d="m237.292969 204.496094-50.4375 50.4375c-3.90625 3.90625-3.90625 10.238281 0 14.144531 3.902343 3.902344 10.234375 3.902344 14.140625 0l50.4375-50.441406c3.90625-3.902344 3.90625-10.234375 0-14.140625-3.90625-3.902344-10.234375-3.902344-14.140625 0zm0 0"/><path d="m250.492188 492h-239.992188c-5.523438 0-10 4.476562-10 10s4.476562 10 10 10h239.992188c5.523437 0 10-4.476562 10-10s-4.476563-10-10-10zm0 0"/><path d="m330.492188 512c5.519531 0 10-4.476562 10-10s-4.480469-10-10-10h-40c-5.523438 0-10 4.476562-10 10s4.476562 10 10 10zm0 0"/></svg>